<?xml version="1.0" standalone="no"?>
<!DOCTYPE svg PUBLIC "-//W3C//DTD SVG 20010904//EN"
 "http://www.w3.org/TR/2001/REC-SVG-20010904/DTD/svg10.dtd">
<svg version="1.0" xmlns="http://www.w3.org/2000/svg"
 width="133.000000pt" height="133.000000pt" viewBox="0 0 133.000000 133.000000"
 preserveAspectRatio="xMidYMid meet">
<metadata>
Created by potrace 1.14, written by Peter Selinger 2001-2017
</metadata>
<g transform="translate(0.000000,133.000000) scale(0.100000,-0.100000)"
fill="#000000" stroke="none">
<path d="M549 1146 c-101 -41 -163 -100 -207 -195 -21 -46 -26 -72 -26 -146
-1 -83 2 -96 32 -157 41 -84 119 -158 166 -158 51 0 89 32 138 114 49 84 49
84 87 8 28 -55 101 -129 146 -148 44 -18 116 -18 160 0 47 20 44 26 -7 14 -44
-10 -98 -4 -132 14 -17 9 -16 13 22 48 114 108 146 278 77 422 -33 70 -90 127
-167 168 -55 30 -74 34 -148 37 -70 2 -95 -2 -141 -21z m231 -18 c19 -5 58
-25 85 -44 152 -102 195 -298 101 -458 -25 -43 -79 -96 -96 -96 -17 0 -57 51
-99 127 l-42 75 47 82 c25 44 55 90 65 102 26 28 24 34 -11 34 -43 0 -74 -24
-111 -83 l-32 -52 -16 25 c-56 86 -133 132 -188 112 l-28 -10 28 -1 c57 -2 98
-38 155 -135 l23 -39 -77 -128 c-86 -143 -81 -140 -148 -73 -130 130 -129 350
1 478 91 89 217 120 343 84z"/>
<path d="M663 1088 c1 -8 -6 -12 -18 -10 -19 2 -19 2 -2 -12 17 -13 16 -15
-18 -26 -37 -12 -37 -12 -13 -24 12 -7 28 -10 33 -7 12 7 47 11 90 12 l30 0
-27 15 c-30 16 -35 29 -15 38 6 3 2 3 -11 0 -15 -4 -24 0 -28 10 -7 19 -25 22
-21 4z"/>
<path d="M710 1010 c0 -5 5 -10 10 -10 6 0 10 5 10 10 0 6 -4 10 -10 10 -5 0
-10 -4 -10 -10z"/>
<path d="M608 970 c18 -17 37 -28 41 -25 5 3 12 -2 15 -11 7 -18 22 -11 37 19
12 21 11 22 -8 4 -18 -16 -22 -16 -33 -2 -7 8 -16 13 -20 10 -5 -3 -11 -1 -15
5 -3 5 -16 15 -28 21 -15 7 -12 1 11 -21z"/>
<path d="M748 989 c-10 -5 -23 -20 -29 -32 -10 -18 -6 -17 20 7 39 37 42 45 9
25z"/>
<path d="M91 308 c2 -61 4 -68 22 -68 16 0 17 3 7 15 -7 8 -10 35 -8 68 3 40
1 54 -9 54 -10 0 -13 -18 -12 -69z"/>
<path d="M140 373 c0 -1 9 -7 20 -13 15 -8 20 -8 20 3 0 7 -9 13 -20 13 -11 0
-20 -1 -20 -3z"/>
<path d="M220 373 c0 -2 10 -17 21 -32 13 -17 18 -34 14 -42 -5 -7 -4 -10 3
-5 11 6 38 -31 34 -46 -1 -5 7 -8 18 -8 17 0 15 7 -20 62 -22 33 -40 64 -40
68 0 4 -7 7 -15 7 -8 0 -15 -2 -15 -4z"/>
<path d="M306 363 c-6 -14 -5 -15 5 -6 7 7 10 15 7 18 -3 3 -9 -2 -12 -12z"/>
<path d="M383 365 c-52 -36 -29 -125 32 -125 l20 1 -20 11 c-11 6 -23 16 -27
22 -13 19 -9 60 8 84 18 26 16 27 -13 7z"/>
<path d="M440 375 c0 -3 9 -15 20 -27 17 -18 20 -19 20 -5 0 9 -9 21 -20 27
-11 6 -20 8 -20 5z"/>
<path d="M523 308 c1 -66 2 -68 27 -68 20 1 22 2 9 10 -12 7 -16 24 -15 68 1
40 -3 59 -11 59 -8 0 -11 -21 -10 -69z"/>
<path d="M649 371 c-5 -28 3 -106 12 -117 17 -21 66 -17 79 5 5 11 9 44 8 73
-1 53 -2 53 -5 8 -6 -81 -11 -92 -41 -88 -26 3 -27 5 -27 64 0 42 -4 61 -12
61 -7 0 -13 -3 -14 -6z"/>
<path d="M805 363 c-16 -15 -14 -19 25 -55 34 -32 40 -41 30 -53 -7 -9 -8 -15
-2 -15 5 0 15 6 21 14 16 19 2 47 -35 70 -18 12 -24 24 -21 37 6 23 3 24 -18
2z"/>
<path d="M930 308 c0 -48 4 -68 13 -68 8 0 12 20 12 68 0 49 -4 69 -12 69 -9
0 -13 -20 -13 -69z"/>
<path d="M1029 310 c14 -39 29 -70 33 -70 12 0 10 9 -15 75 -12 33 -27 61 -33
62 -7 1 0 -28 15 -67z"/>
<path d="M1105 369 c-4 -6 -5 -12 -2 -15 2 -3 7 2 10 11 7 17 1 20 -8 4z"/>
<path d="M1160 308 c0 -68 0 -68 28 -67 17 1 20 3 9 6 -15 4 -17 14 -15 67 2
45 -1 63 -9 63 -9 0 -13 -21 -13 -69z"/>
<path d="M1230 373 c0 -4 5 -15 10 -23 8 -13 10 -13 10 2 0 9 -4 20 -10 23 -5
3 -10 3 -10 -2z"/>
<path d="M860 361 c0 -6 5 -13 10 -16 6 -3 10 1 10 9 0 9 -4 16 -10 16 -5 0
-10 -4 -10 -9z"/>
<path d="M1217 325 c-4 -8 -2 -17 3 -20 6 -4 10 3 10 14 0 25 -6 27 -13 6z"/>
<path d="M130 316 c0 -2 7 -6 15 -10 8 -3 15 -1 15 4 0 6 -7 10 -15 10 -8 0
-15 -2 -15 -4z"/>
<path d="M1075 299 c-4 -6 -5 -12 -2 -15 2 -3 7 2 10 11 7 17 1 20 -8 4z"/>
<path d="M791 273 c-1 -21 33 -42 46 -29 4 3 0 6 -9 6 -8 0 -20 10 -26 23
l-11 22 0 -22z"/>
<path d="M180 271 c0 -6 -10 -16 -22 -21 -23 -9 -23 -9 -2 -9 20 -1 41 26 29
37 -3 3 -5 0 -5 -7z"/>
<path d="M225 260 c-10 -11 -14 -20 -9 -20 5 0 15 9 22 20 7 11 11 20 9 20 -2
0 -12 -9 -22 -20z"/>
<path d="M597 260 c-13 -15 -14 -20 -3 -20 7 0 16 9 19 20 3 11 4 20 3 20 -1
0 -9 -9 -19 -20z"/>
<path d="M1230 250 c-13 -8 -12 -10 3 -10 9 0 17 5 17 10 0 12 -1 12 -20 0z"/>
<path d="M271 174 c0 -11 3 -14 6 -6 3 7 2 16 -1 19 -3 4 -6 -2 -5 -13z"/>
<path d="M517 177 c-3 -8 1 -14 8 -14 7 0 11 6 8 14 -6 16 -10 16 -16 0z"/>
<path d="M701 174 c0 -11 3 -14 6 -6 3 7 2 16 -1 19 -3 4 -6 -2 -5 -13z"/>
<path d="M846 173 c-6 -14 -5 -15 5 -6 7 7 10 15 7 18 -3 3 -9 -2 -12 -12z"/>
<path d="M936 177 c3 -10 9 -15 12 -12 3 3 0 11 -7 18 -10 9 -11 8 -5 -6z"/>
<path d="M961 174 c0 -11 3 -14 6 -6 3 7 2 16 -1 19 -3 4 -6 -2 -5 -13z"/>
<path d="M1137 173 c3 -7 6 -13 8 -13 2 0 5 6 8 13 3 8 -1 14 -8 14 -7 0 -11
-6 -8 -14z"/>
</g>
</svg>
